<svg width="100" height="100" viewBox="0 0 100 100" fill="none" xmlns="http://www.w3.org/2000/svg">
<path d="M65.625 93.75C65.0926 93.7497 64.569 93.6134 64.104 93.3539C63.639 93.0945 63.2481 92.7205 62.9682 92.2675C62.6883 91.8145 62.5288 91.2975 62.5049 90.7656C62.4809 90.2337 62.5933 89.7044 62.8313 89.2281L69.0813 76.7281C69.2568 76.3482 69.5068 76.0074 69.8166 75.7259C70.1263 75.4445 70.4894 75.2281 70.8843 75.0896C71.2793 74.9511 71.698 74.8934 72.1157 74.9199C72.5333 74.9463 72.9414 75.0564 73.3158 75.2435C73.6901 75.4307 74.023 75.6911 74.2948 76.0094C74.5665 76.3277 74.7716 76.6973 74.8978 77.0963C75.024 77.4954 75.0687 77.9157 75.0294 78.3323C74.9901 78.749 74.8674 79.1535 74.6688 79.5219L68.4188 92.0219C68.1594 92.5409 67.7607 92.9774 67.2673 93.2826C66.7739 93.5879 66.2052 93.7497 65.625 93.75ZM28.125 100C27.5926 99.9997 27.069 99.8634 26.604 99.6039C26.139 99.3445 25.7481 98.9705 25.4682 98.5175C25.1883 98.0645 25.0288 97.5475 25.0049 97.0156C24.9809 96.4837 25.0933 95.9544 25.3313 95.4781L31.5813 82.9781C31.7568 82.5982 32.0068 82.2574 32.3166 81.9759C32.6263 81.6945 32.9894 81.4781 33.3843 81.3396C33.7793 81.2011 34.198 81.1434 34.6157 81.1699C35.0333 81.1963 35.4414 81.3064 35.8158 81.4935C36.1901 81.6807 36.523 81.9411 36.7948 82.2594C37.0665 82.5777 37.2716 82.9473 37.3978 83.3463C37.524 83.7454 37.5687 84.1657 37.5294 84.5823C37.4901 84.999 37.3674 85.4035 37.1688 85.7719L30.9188 98.2719C30.6594 98.7909 30.2607 99.2274 29.7673 99.5326C29.2739 99.8379 28.7052 99.9997 28.125 100ZM49.6907 95.3L44.2657 92.2L54.0938 75H35.3438L50.5157 48.45L55.9407 51.55L46.1125 68.75H64.8657L49.6907 95.3Z" fill="white"/>
<path d="M77.5 28.55C76.1684 22.2431 72.7094 16.5855 67.7027 12.5255C62.696 8.46556 56.4459 6.24989 50 6.24989C43.554 6.24989 37.3039 8.46556 32.2973 12.5255C27.2906 16.5855 23.8316 22.2431 22.5 28.55C17.8529 29.495 13.6836 32.0379 10.7162 35.737C7.74883 39.4361 6.17081 44.0577 6.25622 48.7991C6.34163 53.5405 8.08508 58.1023 11.1838 61.6921C14.2824 65.2819 18.5406 67.6729 23.2187 68.45L19.0812 76.7281C18.894 77.0956 18.7814 77.4965 18.7498 77.9077C18.7183 78.319 18.7684 78.7324 18.8974 79.1241C19.0264 79.5159 19.2316 79.8782 19.5013 80.1902C19.771 80.5023 20.0998 80.7578 20.4687 80.9422C20.8377 81.1265 21.2394 81.2361 21.6509 81.2644C22.0623 81.2927 22.4753 81.2394 22.8661 81.1073C23.2568 80.9753 23.6175 80.7672 23.9274 80.4951C24.2374 80.223 24.4904 79.8922 24.6718 79.5219L30.9218 67.0219C31.2919 66.2809 31.3527 65.4232 31.0907 64.6375C30.8288 63.8517 30.2656 63.202 29.525 62.8313C29.0878 62.6243 28.6086 62.5216 28.125 62.5313V62.5H26.5625C22.9368 62.4912 19.4548 61.0818 16.8438 58.5662C14.2328 56.0506 12.6948 52.6234 12.5512 49.0005C12.4076 45.3777 13.6695 41.8395 16.0731 39.1251C18.4768 36.4107 21.8364 34.7301 25.45 34.4344L28 34.2344L28.3093 31.6969C28.9616 26.4032 31.5272 21.5307 35.5227 17.9973C39.5182 14.464 44.6678 12.5136 50.0015 12.5136C55.3353 12.5136 60.4849 14.464 64.4804 17.9973C68.4759 21.5307 71.0414 26.4032 71.6937 31.6969L72.0031 34.2344L74.55 34.4344C78.1636 34.7301 81.5231 36.4107 83.9268 39.1251C86.3305 41.8395 87.5923 45.3777 87.4487 49.0005C87.3051 52.6234 85.7672 56.0506 83.1562 58.5662C80.5452 61.0818 77.0631 62.4912 73.4375 62.5H71.875V68.75H73.4375C78.4725 68.7553 83.3298 66.8896 87.0665 63.515C90.8033 60.1404 93.1528 55.4977 93.6591 50.4883C94.1653 45.4788 92.7921 40.4599 89.8061 36.406C86.8201 32.352 82.4342 29.5522 77.5 28.55Z" fill="white"/>
</svg>
