<svg width="48" height="48" viewBox="0 0 48 48" fill="none" xmlns="http://www.w3.org/2000/svg">
<path d="M19.5 36C19.8978 36 20.2794 36.158 20.5607 36.4393C20.842 36.7206 21 37.1022 21 37.5C21 37.8978 20.842 38.2794 20.5607 38.5607C20.2794 38.842 19.8978 39 19.5 39C19.1022 39 18.7207 38.842 18.4394 38.5607C18.1581 38.2794 18 37.8978 18 37.5C18 37.1022 18.1581 36.7206 18.4394 36.4393C18.7207 36.158 19.1022 36 19.5 36ZM28.5 36C28.8978 36 29.2794 36.158 29.5607 36.4393C29.842 36.7206 30 37.1022 30 37.5C30 37.8978 29.842 38.2794 29.5607 38.5607C29.2794 38.842 28.8978 39 28.5 39C28.1022 39 27.7207 38.842 27.4394 38.5607C27.158 38.2794 27 37.8978 27 37.5C27 37.1022 27.158 36.7206 27.4394 36.4393C27.7207 36.158 28.1022 36 28.5 36ZM15 34C15.3978 34 15.7794 34.158 16.0607 34.4393C16.342 34.7206 16.5 35.1022 16.5 35.5C16.5 35.8978 16.342 36.2794 16.0607 36.5607C15.7794 36.842 15.3978 37 15 37C14.6022 37 14.2207 36.842 13.9394 36.5607C13.658 36.2794 13.5 35.8978 13.5 35.5C13.5 35.1022 13.658 34.7206 13.9394 34.4393C14.2207 34.158 14.6022 34 15 34ZM24 34C24.3978 34 24.7794 34.158 25.0607 34.4393C25.342 34.7206 25.5 35.1022 25.5 35.5C25.5 35.8978 25.342 36.2794 25.0607 36.5607C24.7794 36.842 24.3978 37 24 37C23.6022 37 23.2207 36.842 22.9394 36.5607C22.658 36.2794 22.5 35.8978 22.5 35.5C22.5 35.1022 22.658 34.7206 22.9394 34.4393C23.2207 34.158 23.6022 34 24 34ZM33 34C33.3978 34 33.7794 34.158 34.0607 34.4393C34.342 34.7206 34.5 35.1022 34.5 35.5C34.5 35.8978 34.342 36.2794 34.0607 36.5607C33.7794 36.842 33.3978 37 33 37C32.6022 37 32.2207 36.842 31.9394 36.5607C31.658 36.2794 31.5 35.8978 31.5 35.5C31.5 35.1022 31.658 34.7206 31.9394 34.4393C32.2207 34.158 32.6022 34 33 34ZM24.001 8C30.338 8 33.933 12.195 34.456 17.26H34.616C38.694 17.26 42 20.558 42 24.625C42 28.692 38.694 31.99 34.616 31.99H13.386C9.30801 31.99 6.00201 28.693 6.00201 24.625C6.00201 20.557 9.30801 17.26 13.387 17.26H13.547C14.072 12.161 17.665 8 24.001 8ZM24 10.495C19.74 10.495 16.025 13.943 16.025 18.705C16.025 19.46 15.369 20.053 14.618 20.053H13.198C10.603 20.053 8.50001 22.166 8.50001 24.773C8.50001 27.381 10.603 29.495 13.197 29.495H34.803C37.397 29.495 39.5 27.381 39.5 24.774C39.5 22.167 37.398 20.052 34.803 20.052H33.383C32.632 20.052 31.975 19.46 31.975 18.706C31.975 13.882 28.261 10.496 24 10.496" fill="white"/>
</svg>
