<svg width="100" height="100" viewBox="0 0 100 100" fill="none" xmlns="http://www.w3.org/2000/svg">
<path d="M54.1687 25.0001C67.3708 25.0001 74.8604 33.7396 75.95 44.2917H76.2833C84.7792 44.2917 91.6667 51.1626 91.6667 59.6355C91.6667 68.1084 84.7792 74.9792 76.2833 74.9792L72.6938 74.9813L72.6125 75.1771L72.475 75.4438L65.1833 88.075C64.7849 88.7762 64.1308 89.2961 63.3579 89.5261C62.585 89.7562 61.753 89.6785 61.0361 89.3094C60.3191 88.9403 59.7725 88.3083 59.5107 87.5455C59.2489 86.7828 59.2921 85.9484 59.6312 85.2167L59.7708 84.948L65.525 74.9792L56.575 74.9813L56.4958 75.1771L56.3563 75.4438L49.0646 88.075C48.6632 88.7703 48.0096 89.2845 47.2393 89.5108C46.469 89.7372 45.6412 89.6584 44.9274 89.2908C44.2137 88.9232 43.6688 88.295 43.4057 87.5365C43.1427 86.7779 43.1817 85.9473 43.5146 85.2167L43.6521 84.948L49.4083 74.9792L40.4583 74.9813L40.3771 75.1771L40.2396 75.4438L32.9479 88.075C32.5495 88.7762 31.8954 89.2961 31.1225 89.5261C30.3496 89.7562 29.5176 89.6785 28.8006 89.3094C28.0836 88.9403 27.5371 88.3083 27.2753 87.5455C27.0135 86.7828 27.0567 85.9484 27.3958 85.2167L27.5354 84.948L33.2896 74.9792H32.0542C23.5583 74.9792 16.6708 68.1105 16.6708 59.6355C16.6708 51.1605 23.5583 44.2917 32.0542 44.2917H32.3875C33.4833 33.6688 40.9667 25.0001 54.1687 25.0001ZM54.1687 30.198C45.2937 30.198 37.5542 37.3813 37.5542 47.3021C37.5542 48.8751 36.1875 50.1105 34.6229 50.1105H31.6646C26.2583 50.1105 21.8771 54.5126 21.8771 59.9438C21.8771 65.3771 26.2583 69.7813 31.6625 69.7813H76.675C82.0792 69.7813 86.4604 65.3771 86.4604 59.9459C86.4604 54.5146 82.0792 50.1084 76.675 50.1084H73.7167C72.15 50.1084 70.7833 48.8751 70.7833 47.3042C70.7833 37.2542 63.0458 30.2001 54.1687 30.2001M27.4542 8.33755C30.7667 8.51672 33.9833 9.47089 36.8833 11.1459C41.1126 13.5763 44.3662 17.4005 46.0875 21.9646C44.5127 22.4077 42.9853 23.0044 41.5271 23.7459C40.1937 20.1188 37.2354 17.1709 33.2104 14.8667C32.274 14.3388 31.2772 13.9261 30.2417 13.6376C31 19.9709 30.7562 24.2792 28.0396 29.4251L27.4812 30.423C24.7833 35.0001 20.8 37.7084 14.7208 40.5063C15.3917 41.1688 16.4125 41.948 17.2458 42.5355C18.1917 43.2021 19.166 43.7702 20.1687 44.2396C18.7278 45.3579 17.4502 46.672 16.3729 48.1438L15.7271 47.7855C13.0043 46.2197 10.6666 44.0642 8.88542 41.4771C8.61314 41.0826 8.43527 40.6308 8.36556 40.1566C8.29584 39.6823 8.33616 39.1984 8.48338 38.7423C8.6306 38.2861 8.88078 37.8699 9.21457 37.5259C9.54836 37.1819 9.95681 36.9193 10.4083 36.7584C17.2521 34.3084 20.9396 31.5501 23.0479 27.5251C25.35 23.1292 25.7771 18.4667 24.2479 12.2042C24.1322 11.73 24.129 11.2354 24.2386 10.7597C24.3482 10.2841 24.5675 9.84067 24.8791 9.46493C25.1906 9.0892 25.5858 8.79156 26.0329 8.59581C26.48 8.40005 26.9668 8.31161 27.4542 8.33755Z" fill="white"/>
</svg>
