<svg width="100" height="100" viewBox="0 0 100 100" fill="none" xmlns="http://www.w3.org/2000/svg">
<path d="M54.1729 29.2042C67.375 29.2042 74.8646 37.9417 75.9542 48.4958H76.2875C84.7833 48.4958 91.6708 55.3667 91.6708 63.8396C91.6708 72.3125 84.7833 79.1833 76.2875 79.1833H32.0583C23.5625 79.1833 16.675 72.3146 16.675 63.8396C16.675 55.5354 23.2917 48.7708 31.55 48.5042L32.3937 48.4958C33.4896 37.8729 40.9708 29.2042 54.1729 29.2042ZM54.1729 34.4021C45.2979 34.4021 37.5583 41.5854 37.5583 51.5062C37.5583 53.0792 36.1917 54.3125 34.6271 54.3125H31.6667C26.2604 54.3125 21.8792 58.7167 21.8792 64.15C21.8792 69.5812 26.2604 73.9854 31.6646 73.9854H76.6771C82.0833 73.9854 86.4625 69.5812 86.4625 64.15C86.4625 58.7187 82.0833 54.3125 76.6792 54.3125H73.7187C72.1542 54.3125 70.7854 53.0792 70.7854 51.5083C70.7854 41.4583 63.05 34.4021 54.1729 34.4021ZM41.6667 16.6667C44.8622 16.665 48.01 17.4428 50.8369 18.9327C53.6639 20.4226 56.0847 22.5796 57.8896 25.2167C55.5117 24.936 53.1097 24.9241 50.7292 25.1812C48.2133 23.0005 44.9962 21.7987 41.6667 21.7958C34.825 21.7958 28.9937 26.8438 27.8271 33.6625L27.1729 37.475C27.0903 37.9599 26.8387 38.4 26.4627 38.7172C26.0868 39.0345 25.6107 39.2084 25.1187 39.2083H21.0625C16.7646 39.2083 13.2812 42.7708 13.2812 47.1687C13.2812 49.4729 14.2396 51.5479 15.7667 53.0021C14.8612 54.3576 14.1304 55.8219 13.5917 57.3604C11.3479 55.6078 9.70703 53.1986 8.89809 50.4687C8.08914 47.7389 8.15241 44.8247 9.07907 42.1325C10.0057 39.4404 11.7496 37.1046 14.0673 35.4511C16.3851 33.7975 19.1612 32.9086 22.0083 32.9083H22.3042C23.109 28.3576 25.4906 24.2357 29.0313 21.2657C32.5719 18.2958 37.0453 16.6675 41.6667 16.6667Z" fill="white"/>
</svg>
