<svg width="100" height="100" viewBox="0 0 100 100" fill="none" xmlns="http://www.w3.org/2000/svg">
<path d="M85.9863 50.5859C88.0371 51.1719 89.9251 52.0345 91.6504 53.1738C93.3756 54.3132 94.8568 55.6803 96.0938 57.2754C97.3307 58.8704 98.291 60.6445 98.9746 62.5977C99.6582 64.5508 100 66.6016 100 68.75C100 71.3216 99.5117 73.7467 98.5352 76.0254C97.5586 78.304 96.2077 80.2897 94.4824 81.9824C92.7572 83.6751 90.7715 85.0098 88.5254 85.9863C86.2793 86.9629 83.8542 87.4674 81.25 87.5H28.125C25.0977 87.5 22.2656 86.9303 19.6289 85.791C16.9922 84.6517 14.6647 83.0892 12.6465 81.1035C10.6283 79.1178 9.06575 76.8066 7.95898 74.1699C6.85221 71.5332 6.28255 68.6849 6.25 65.625C6.25 63.0859 6.6569 60.6608 7.4707 58.3496C8.28451 56.0384 9.48893 53.89 11.084 51.9043C8.44727 50.1465 6.23372 47.9655 4.44336 45.3613C2.65299 42.7572 1.39974 39.9089 0.683594 36.8164C2.57161 37.2721 4.42708 37.5 6.25 37.5C9.70052 37.5 12.9395 36.849 15.9668 35.5469C18.9941 34.2448 21.6471 32.4707 23.9258 30.2246C26.2044 27.9785 27.9948 25.3255 29.2969 22.2656C30.599 19.2057 31.25 15.9505 31.25 12.5C31.25 10.6771 31.0221 8.82161 30.5664 6.93359C33.3984 7.58464 36.0026 8.67513 38.3789 10.2051C40.7552 11.735 42.806 13.5742 44.5312 15.7227C46.2565 17.8711 47.5911 20.2637 48.5352 22.9004C49.4792 25.5371 49.9674 28.3203 50 31.25C50 31.5104 49.9837 31.7871 49.9512 32.0801C49.9186 32.373 49.8861 32.6497 49.8535 32.9102L50.0488 32.8613C51.6113 32.373 53.1413 31.9824 54.6387 31.6895C56.1361 31.3965 57.7148 31.25 59.375 31.25C62.4023 31.25 65.3158 31.7057 68.1152 32.6172C70.9147 33.5286 73.4701 34.847 75.7812 36.5723C78.0924 38.2975 80.1432 40.3483 81.9336 42.7246C83.724 45.1009 85.0749 47.7214 85.9863 50.5859ZM37.1582 16.9922C36.6699 20.4102 35.6608 23.6165 34.1309 26.6113C32.6009 29.6061 30.6803 32.2591 28.3691 34.5703C26.0579 36.8815 23.3887 38.8184 20.3613 40.3809C17.334 41.9434 14.1276 42.9525 10.7422 43.4082C12.1419 45.1009 13.8346 46.4681 15.8203 47.5098C17.6758 46.2728 19.6289 45.3451 21.6797 44.7266C23.7305 44.1081 25.8789 43.7826 28.125 43.75C29.362 43.75 30.5827 43.8477 31.7871 44.043C32.9915 44.2383 34.1634 44.5475 35.3027 44.9707C36.2467 43.278 37.3698 41.7643 38.6719 40.4297C39.974 39.0951 41.39 37.8092 42.9199 36.5723C43.4733 34.8145 43.75 33.0404 43.75 31.25C43.75 28.4831 43.1803 25.8626 42.041 23.3887C40.9017 20.9147 39.2741 18.7826 37.1582 16.9922ZM81.25 81.25C82.9753 81.25 84.5866 80.9245 86.084 80.2734C87.5814 79.6224 88.916 78.7272 90.0879 77.5879C91.2598 76.4486 92.1549 75.1302 92.7734 73.6328C93.3919 72.1354 93.7174 70.5078 93.75 68.75C93.75 66.9596 93.4245 65.2995 92.7734 63.7695C92.1224 62.2396 91.1947 60.9212 89.9902 59.8145C88.7858 58.7077 87.4186 57.8288 85.8887 57.1777C84.3587 56.5267 82.6986 56.2174 80.9082 56.25C80.5176 53.5807 79.6875 51.1068 78.418 48.8281C77.1484 46.5495 75.5534 44.5638 73.6328 42.8711C71.7122 41.1784 69.5312 39.86 67.0898 38.916C64.6484 37.972 62.0768 37.5 59.375 37.5C56.8685 37.5 54.4922 37.8906 52.2461 38.6719C50 39.4531 47.9329 40.5762 46.0449 42.041C44.1569 43.5059 42.5618 45.2311 41.2598 47.2168C39.9577 49.2025 38.9648 51.416 38.2812 53.8574C36.849 52.6204 35.2702 51.6764 33.5449 51.0254C31.8197 50.3743 30.013 50.0326 28.125 50C25.9766 50 23.9583 50.4069 22.0703 51.2207C20.1823 52.0345 18.5221 53.1413 17.0898 54.541C15.6576 55.9408 14.5345 57.6009 13.7207 59.5215C12.9069 61.4421 12.5 63.4766 12.5 65.625C12.5 67.7734 12.9069 69.7917 13.7207 71.6797C14.5345 73.5677 15.6413 75.2279 17.041 76.6602C18.4408 78.0924 20.1009 79.2155 22.0215 80.0293C23.9421 80.8431 25.9766 81.25 28.125 81.25H81.25Z" fill="white"/>
</svg>
