<svg width="100" height="100" viewBox="0 0 100 100" fill="none" xmlns="http://www.w3.org/2000/svg">
<path d="M30.572 10.036C31.3665 10.0723 32.1141 10.4226 32.6504 11.0099C33.1867 11.5972 33.4678 12.3735 33.432 13.168V13.208C33.3959 14.0031 33.0455 14.7513 32.4577 15.2881C31.87 15.8248 31.0931 16.1061 30.298 16.07C29.5029 16.0339 28.7547 15.6835 28.2179 15.0957C27.6812 14.508 27.3999 13.7311 27.436 12.936V12.896C27.454 12.5022 27.5494 12.1159 27.7167 11.759C27.8841 11.4022 28.1201 11.0818 28.4113 10.8162C28.7026 10.5506 29.0433 10.3449 29.414 10.2111C29.7848 10.0772 30.1783 10.0177 30.572 10.036ZM45.472 17.012C45.7379 17.3029 45.9439 17.6434 46.0782 18.014C46.2125 18.3846 46.2725 18.778 46.2546 19.1718C46.2368 19.5656 46.1415 19.9519 45.9743 20.3089C45.8071 20.6658 45.5711 20.9863 45.28 21.252L45.252 21.28C44.6628 21.8071 43.8894 22.0804 43.0998 22.0404C42.3103 22.0004 41.5684 21.6503 41.0355 21.0663C40.5027 20.4823 40.2219 19.7116 40.2542 18.9217C40.2864 18.1318 40.6292 17.3866 41.208 16.848L41.236 16.82C41.5269 16.5541 41.8674 16.3481 42.238 16.2138C42.6086 16.0795 43.002 16.0195 43.3958 16.0374C43.7895 16.0552 44.1759 16.1505 44.5329 16.3177C44.8898 16.4849 45.2103 16.7209 45.476 17.012M18.184 41.94C18.7199 42.5274 19.0006 43.3035 18.9646 44.0977C18.9286 44.892 18.5788 45.6395 17.992 46.176L17.96 46.204C17.6698 46.4741 17.3289 46.6839 16.9571 46.8215C16.5853 46.959 16.1899 47.0215 15.7938 47.0053C15.3977 46.9891 15.0087 46.8945 14.6494 46.7271C14.29 46.5597 13.9674 46.3227 13.7002 46.0299C13.433 45.737 13.2265 45.3941 13.0926 45.021C12.9587 44.6478 12.9001 44.2519 12.9202 43.8559C12.9402 43.46 13.0386 43.072 13.2095 42.7143C13.3804 42.3566 13.6206 42.0363 13.916 41.772L13.944 41.744C14.2352 41.4783 14.5759 41.2726 14.9466 41.1386C15.3173 41.0047 15.7108 40.9451 16.1046 40.9633C16.4984 40.9815 16.8847 41.0771 17.2415 41.2447C17.5983 41.4123 17.9186 41.6486 18.184 41.94ZM11.02 33.672C11.8027 33.6882 12.5606 33.3978 13.1321 32.8628C13.7036 32.3279 14.0434 31.5907 14.0789 30.8087C14.1144 30.0267 13.8428 29.2618 13.3221 28.6772C12.8014 28.0927 12.0729 27.7348 11.292 27.68H11.252C10.8528 27.652 10.452 27.7041 10.0732 27.8334C9.69447 27.9626 9.34539 28.1663 9.04656 28.4325C8.74772 28.6987 8.50517 29.022 8.33317 29.3833C8.16118 29.7447 8.06323 30.1368 8.04508 30.5366C8.02693 30.9364 8.08896 31.3358 8.2275 31.7112C8.36605 32.0867 8.57832 32.4306 8.85181 32.7228C9.1253 33.015 9.45448 33.2495 9.81997 33.4125C10.1855 33.5755 10.5799 33.6637 10.98 33.672H11.02ZM19.172 20.096C18.8811 20.3619 18.5406 20.5679 18.17 20.7022C17.7994 20.8365 17.406 20.8965 17.0122 20.8786C16.6184 20.8608 16.2321 20.7655 15.8751 20.5983C15.5182 20.4311 15.1977 20.1952 14.932 19.904L14.908 19.876C14.3712 19.2883 14.0899 18.5114 14.1259 17.7162C14.1437 17.3225 14.2389 16.9362 14.406 16.5792C14.5732 16.2223 14.809 15.9018 15.1 15.636C15.391 15.3702 15.7315 15.1643 16.1021 15.0301C16.4727 14.8959 16.866 14.836 17.2598 14.8539C18.0549 14.8899 18.8032 15.2403 19.34 15.828L19.364 15.86C19.6299 16.1509 19.8359 16.4914 19.9702 16.862C20.1045 17.2326 20.1645 17.626 20.1466 18.0198C20.1288 18.4136 20.0335 18.7999 19.8663 19.1569C19.6991 19.5138 19.4631 19.8303 19.172 20.096ZM23.344 31.228C23.4048 29.8602 23.9124 28.5501 24.7889 27.4984C25.6655 26.4467 26.8626 25.7113 28.197 25.4049C29.5314 25.0986 30.9294 25.2381 32.177 25.8022C33.4245 26.3663 34.4526 27.3238 35.104 28.528C36.624 27.2133 38.26 26.0507 40.012 25.04C38.9905 23.3984 37.5953 22.0216 35.9402 21.0222C34.2851 20.0227 32.4171 19.4288 30.4887 19.2891C28.5603 19.1493 26.6262 19.4677 24.8443 20.2181C23.0624 20.9685 21.4832 22.1297 20.2357 23.6069C18.9883 25.0841 18.1079 26.8354 17.6664 28.7178C17.225 30.6002 17.235 32.5603 17.6957 34.4381C18.1563 36.3159 19.0546 38.0581 20.3171 39.5225C21.5796 40.9868 23.1705 42.1318 24.96 42.864C25.256 42.7627 25.552 42.6667 25.848 42.576C26.408 40.8267 27.108 39.152 27.948 37.552C26.5783 37.1761 25.3771 36.3459 24.5412 35.1976C23.7054 34.0492 23.2847 32.6509 23.348 31.232" fill="white"/>
<path fill-rule="evenodd" clip-rule="evenodd" d="M55.444 26.936C68.604 26.936 79.444 37.112 80.416 50.044C83.413 51.8968 85.7241 54.6765 86.9986 57.9614C88.2732 61.2463 88.4418 64.8572 87.4787 68.2466C86.5157 71.6359 84.4736 74.6188 81.6623 76.7427C78.8509 78.8667 75.4235 80.0159 71.9 80.016H32.288C28.1252 80.0146 24.1228 78.4104 21.1114 75.5363C18.1 72.6623 16.3109 68.739 16.1153 64.5809C15.9198 60.4227 17.3328 56.3488 20.0612 53.2048C22.7895 50.0608 26.6237 48.0881 30.768 47.696C31.7765 41.8825 34.8056 36.6119 39.3209 32.8138C43.8362 29.0156 49.5477 26.934 55.448 26.936M74.488 51.872C74.456 41.42 65.928 32.936 55.448 32.936C50.6011 32.9349 45.9362 34.7823 42.4043 38.1016C38.8724 41.421 36.7394 45.9624 36.44 50.8C36.3951 51.5641 36.0598 52.2821 35.5029 52.8071C34.9459 53.332 34.2094 53.6243 33.444 53.624H32.288C29.5838 53.624 26.9905 54.6982 25.0783 56.6103C23.1662 58.5225 22.092 61.1158 22.092 63.82C22.092 66.5241 23.1662 69.1175 25.0783 71.0297C26.9905 72.9418 29.5838 74.016 32.288 74.016H71.9C74.2222 74.0183 76.4757 73.2278 78.2876 71.7752C80.0995 70.3226 81.3612 68.2951 81.8641 66.0279C82.367 63.7608 82.0809 61.3899 81.0531 59.3074C80.0253 57.225 78.3174 55.5558 76.212 54.576C75.6975 54.3351 75.262 53.9531 74.9561 53.4745C74.6501 52.9958 74.4904 52.4401 74.488 51.872Z" fill="white"/>
</svg>
