<svg width="48" height="48" viewBox="0 0 48 48" fill="none" xmlns="http://www.w3.org/2000/svg">
<path d="M5 34.46V32.384C6.036 32.256 6.84267 31.916 7.42 31.364C7.99867 30.8133 9.092 30.538 10.7 30.538C12.3853 30.538 13.5747 30.8713 14.268 31.538C14.9613 32.2047 15.9847 32.538 17.338 32.538C18.7073 32.538 19.7387 32.2047 20.432 31.538C21.1253 30.8713 22.3147 30.538 24 30.538C25.6693 30.538 26.8587 30.8713 27.568 31.538C28.2773 32.2047 29.3087 32.538 30.662 32.538C32.0313 32.538 33.0587 32.2047 33.744 31.538C34.4307 30.8713 35.616 30.538 37.3 30.538C38.908 30.538 40.0013 30.814 40.58 31.366C41.1573 31.9167 41.964 32.2567 43 32.386V34.462C41.792 34.3073 40.8333 33.948 40.124 33.384C39.4147 32.82 38.4733 32.538 37.3 32.538C35.972 32.538 34.9547 32.8713 34.248 33.538C33.5413 34.2047 32.346 34.538 30.662 34.538C28.9927 34.538 27.8033 34.2047 27.094 33.538C26.3847 32.8713 25.3533 32.5387 24 32.54C22.6307 32.54 21.5993 32.8733 20.906 33.54C20.2127 34.2067 19.0233 34.54 17.338 34.54C15.6527 34.54 14.4613 34.2067 13.764 33.54C13.0667 32.8733 12.0453 32.54 10.7 32.54C9.484 32.54 8.54867 32.822 7.894 33.386C7.23933 33.9513 6.27467 34.3107 5 34.464M5 26.924V24.848C6.036 24.72 6.84267 24.38 7.42 23.828C7.99867 23.2773 9.092 23.002 10.7 23.002C12.3693 23.002 13.5547 23.3353 14.256 24.002C14.9573 24.6687 15.9847 25.002 17.338 25.002C18.7073 25.002 19.7387 24.6687 20.432 24.002C21.1253 23.3353 22.3147 23.0013 24 23C25.6693 23 26.856 23.3333 27.56 24C28.264 24.6667 29.2907 25 30.64 25C32.008 25 33.0387 24.6667 33.732 24C34.4253 23.3333 35.6147 23 37.3 23C38.892 23 39.9853 23.276 40.58 23.828C41.1733 24.3787 41.98 24.718 43 24.846V26.922C41.7773 26.7687 40.8153 26.41 40.114 25.846C39.4127 25.282 38.4747 25 37.3 25C35.972 25 34.9547 25.3333 34.248 26C33.5413 26.6667 32.346 27 30.662 27C28.9927 27 27.8033 26.6667 27.094 26C26.386 25.3333 25.3547 25 24 25C22.6307 25 21.6033 25.3333 20.918 26C20.2313 26.6667 19.046 27 17.362 27C15.678 27 14.478 26.6667 13.762 26C13.046 25.3333 12.0253 25 10.7 25C9.5 25 8.56467 25.282 7.894 25.846C7.22333 26.41 6.25867 26.7693 5 26.924ZM5 19.384V17.308C6.036 17.18 6.84267 16.84 7.42 16.288C7.99867 15.7373 9.092 15.462 10.7 15.462C12.3693 15.462 13.5547 15.7953 14.256 16.462C14.9573 17.1287 15.9847 17.462 17.338 17.462C18.7073 17.462 19.7387 17.1287 20.432 16.462C21.1253 15.7953 22.3147 15.4613 24 15.46C25.6693 15.46 26.856 15.7933 27.56 16.46C28.264 17.1267 29.2907 17.46 30.64 17.46C32.008 17.46 33.0387 17.1267 33.732 16.46C34.4253 15.7933 35.6147 15.46 37.3 15.46C38.892 15.46 39.9853 15.7353 40.58 16.286C41.1733 16.838 41.98 17.178 43 17.306V19.382C41.7773 19.2287 40.8153 18.87 40.114 18.306C39.4127 17.742 38.4747 17.46 37.3 17.46C35.972 17.46 34.9547 17.7933 34.248 18.46C33.5413 19.1267 32.346 19.46 30.662 19.46C28.9927 19.46 27.8033 19.1267 27.094 18.46C26.386 17.7933 25.3547 17.46 24 17.46C22.6307 17.46 21.6033 17.7933 20.918 18.46C20.2313 19.1267 19.046 19.46 17.362 19.46C15.678 19.46 14.478 19.1267 13.762 18.46C13.046 17.7933 12.0253 17.46 10.7 17.46C9.5 17.46 8.552 17.742 7.856 18.306C7.16 18.87 6.208 19.2293 5 19.384Z" fill="white"/>
</svg>
