<svg width="100" height="100" viewBox="0 0 100 100" fill="none" xmlns="http://www.w3.org/2000/svg">
<path d="M58.125 91.25C57.0833 91.8056 56.025 91.8931 54.95 91.5125C53.875 91.1319 53.0583 90.4194 52.5 89.375L46.25 76.875C45.6944 75.8333 45.6083 74.775 45.9916 73.7C46.375 72.625 47.0861 71.8083 48.125 71.25C49.1639 70.6917 50.2236 70.6056 51.3041 70.9917C52.3847 71.3778 53.2 72.0889 53.75 73.125L60 85.625C60.5555 86.6667 60.643 87.7264 60.2625 88.8042C59.8819 89.8819 59.1694 90.6972 58.125 91.25ZM83.125 91.25C82.0833 91.8056 81.025 91.8931 79.95 91.5125C78.875 91.1319 78.0583 90.4194 77.5 89.375L71.25 76.875C70.6944 75.8333 70.6083 74.775 70.9917 73.7C71.375 72.625 72.0861 71.8083 73.125 71.25C74.1639 70.6917 75.2236 70.6056 76.3042 70.9917C77.3847 71.3778 78.2 72.0889 78.75 73.125L85 85.625C85.5555 86.6667 85.643 87.7264 85.2625 88.8042C84.8819 89.8819 84.1694 90.6972 83.125 91.25ZM33.125 91.25C32.0833 91.8056 31.025 91.8931 29.95 91.5125C28.875 91.1319 28.0583 90.4194 27.5 89.375L21.25 76.875C20.6944 75.8333 20.6083 74.775 20.9916 73.7C21.375 72.625 22.0861 71.8083 23.125 71.25C24.1639 70.6917 25.2236 70.6056 26.3041 70.9917C27.3847 71.3778 28.2 72.0889 28.75 73.125L35 85.625C35.5555 86.6667 35.643 87.7264 35.2625 88.8042C34.8819 89.8819 34.1694 90.6972 33.125 91.25ZM31.25 66.6667C24.9305 66.6667 19.5319 64.4278 15.0541 59.95C10.5764 55.4722 8.33609 50.0722 8.33331 43.75C8.33331 37.9861 10.243 32.9514 14.0625 28.6458C17.8819 24.3403 22.6041 21.8056 28.2291 21.0417C30.4514 17.0833 33.4903 13.975 37.3458 11.7167C41.2014 9.45833 45.4194 8.33056 50 8.33333C56.25 8.33333 61.6847 10.3306 66.3041 14.325C70.9236 18.3194 73.718 23.3014 74.6875 29.2708C79.4791 29.6875 83.5069 31.6667 86.7708 35.2083C90.0347 38.75 91.6666 42.9861 91.6667 47.9167C91.6667 53.125 89.8444 57.5528 86.2 61.2C82.5555 64.8472 78.1278 66.6694 72.9166 66.6667H31.25ZM31.25 58.3333H72.9166C75.8333 58.3333 78.2986 57.3264 80.3125 55.3125C82.3264 53.2986 83.3333 50.8333 83.3333 47.9167C83.3333 45 82.3264 42.5347 80.3125 40.5208C78.2986 38.5069 75.8333 37.5 72.9166 37.5H66.6666V33.3333C66.6666 28.75 65.0347 24.8264 61.7708 21.5625C58.5069 18.2986 54.5833 16.6667 50 16.6667C46.6666 16.6667 43.6291 17.5694 40.8875 19.375C38.1458 21.1806 36.0791 23.6111 34.6875 26.6667L33.6458 29.1667H31.0416C27.0833 29.3056 23.6986 30.7819 20.8875 33.5958C18.0764 36.4097 16.6694 39.7944 16.6666 43.75C16.6666 47.7778 18.0903 51.2153 20.9375 54.0625C23.7847 56.9097 27.2222 58.3333 31.25 58.3333Z" fill="white"/>
</svg>
