<svg width="100" height="100" viewBox="0 0 100 100" fill="none" xmlns="http://www.w3.org/2000/svg">
<path d="M12.5001 62.5H54.1667C55.2718 62.5 56.3316 62.939 57.113 63.7204C57.8944 64.5018 58.3334 65.5616 58.3334 66.6667C58.3334 67.7717 57.8944 68.8315 57.113 69.6129C56.3316 70.3943 55.2718 70.8333 54.1667 70.8333H12.5001C11.395 70.8333 10.3352 70.3943 9.5538 69.6129C8.7724 68.8315 8.33341 67.7717 8.33341 66.6667C8.33341 65.5616 8.7724 64.5018 9.5538 63.7204C10.3352 62.939 11.395 62.5 12.5001 62.5ZM66.6667 62.5H87.5001C88.6051 62.5 89.665 62.939 90.4464 63.7204C91.2278 64.5018 91.6667 65.5616 91.6667 66.6667C91.6667 67.7717 91.2278 68.8315 90.4464 69.6129C89.665 70.3943 88.6051 70.8333 87.5001 70.8333H66.6667C65.5617 70.8333 64.5019 70.3943 63.7205 69.6129C62.9391 68.8315 62.5001 67.7717 62.5001 66.6667C62.5001 65.5616 62.9391 64.5018 63.7205 63.7204C64.5019 62.939 65.5617 62.5 66.6667 62.5ZM4.16675 50C4.16675 44.4747 6.36168 39.1756 10.2687 35.2686C14.1757 31.3616 19.4747 29.1667 25.0001 29.1667C29.1667 19.375 38.7501 12.5 50.0001 12.5C64.2917 12.5 76.0001 23.5833 77.0834 37.625L79.1667 37.5C88.2917 37.5 95.7084 44.8333 95.8334 54.1667H87.5001C87.5001 51.9565 86.6221 49.8369 85.0593 48.2741C83.4965 46.7113 81.3769 45.8333 79.1667 45.8333H70.8334V41.6667C70.8334 36.1413 68.6385 30.8423 64.7315 26.9353C60.8245 23.0283 55.5254 20.8333 50.0001 20.8333C39.5834 20.8333 31.0417 28.4167 29.4167 38.2917C28.0417 37.7917 26.5417 37.5 25.0001 37.5C21.6849 37.5 18.5055 38.817 16.1612 41.1612C13.817 43.5054 12.5001 46.6848 12.5001 50C12.498 51.419 12.7375 52.8281 13.2084 54.1667H4.58341L4.16675 50ZM12.5001 79.1667H20.8334C21.9385 79.1667 22.9983 79.6056 23.7797 80.387C24.5611 81.1685 25.0001 82.2283 25.0001 83.3333C25.0001 84.4384 24.5611 85.4982 23.7797 86.2796C22.9983 87.061 21.9385 87.5 20.8334 87.5H12.5001C11.395 87.5 10.3352 87.061 9.5538 86.2796C8.7724 85.4982 8.33341 84.4384 8.33341 83.3333C8.33341 82.2283 8.7724 81.1685 9.5538 80.387C10.3352 79.6056 11.395 79.1667 12.5001 79.1667ZM33.3334 79.1667H87.5001C88.6051 79.1667 89.665 79.6056 90.4464 80.387C91.2278 81.1685 91.6667 82.2283 91.6667 83.3333C91.6667 84.4384 91.2278 85.4982 90.4464 86.2796C89.665 87.061 88.6051 87.5 87.5001 87.5H33.3334C32.2283 87.5 31.1685 87.061 30.3871 86.2796C29.6057 85.4982 29.1667 84.4384 29.1667 83.3333C29.1667 82.2283 29.6057 81.1685 30.3871 80.387C31.1685 79.6056 32.2283 79.1667 33.3334 79.1667Z" fill="white"/>
</svg>
