<svg width="100" height="100" viewBox="0 0 100 100" fill="none" xmlns="http://www.w3.org/2000/svg">
<path d="M50 79.1667C51.1051 79.1667 52.1649 79.6057 52.9463 80.3871C53.7277 81.1685 54.1667 82.2283 54.1667 83.3333V87.5C54.1667 88.6051 53.7277 89.6649 52.9463 90.4463C52.1649 91.2277 51.1051 91.6667 50 91.6667C48.8949 91.6667 47.8351 91.2277 47.0537 90.4463C46.2723 89.6649 45.8333 88.6051 45.8333 87.5V83.3333C45.8333 82.2283 46.2723 81.1685 47.0537 80.3871C47.8351 79.6057 48.8949 79.1667 50 79.1667ZM76.5167 70.625L79.4625 73.5708C80.2215 74.3567 80.6415 75.4092 80.632 76.5017C80.6225 77.5942 80.1843 78.6392 79.4117 79.4117C78.6392 80.1843 77.5942 80.6225 76.5017 80.632C75.4092 80.6415 74.3567 80.2215 73.5708 79.4625L70.625 76.5167C69.866 75.7308 69.446 74.6783 69.4555 73.5858C69.465 72.4933 69.9032 71.4483 70.6758 70.6758C71.4483 69.9032 72.4933 69.465 73.5858 69.4555C74.6783 69.446 75.7308 69.866 76.5167 70.625ZM23.4833 70.625C24.2332 69.8777 25.2393 69.4439 26.2974 69.4115C27.3556 69.3792 28.3863 69.7509 29.1803 70.451C29.9744 71.1512 30.4721 72.1273 30.5725 73.1811C30.6729 74.235 30.3684 75.2875 29.7208 76.125L29.375 76.5167L26.4292 79.4625C25.6793 80.2098 24.6732 80.6436 23.6151 80.6759C22.5569 80.7083 21.5262 80.3366 20.7322 79.6365C19.9382 78.9363 19.4404 77.9602 19.34 76.9064C19.2396 75.8525 19.5441 74.8 20.1917 73.9625L20.5375 73.5708L23.4833 70.625ZM50 25C56.6304 25 62.9893 27.6339 67.6777 32.3223C72.3661 37.0107 75 43.3696 75 50C75 56.6304 72.3661 62.9893 67.6777 67.6777C62.9893 72.3661 56.6304 75 50 75C43.3696 75 37.0107 72.3661 32.3223 67.6777C27.6339 62.9893 25 56.6304 25 50C25 43.3696 27.6339 37.0107 32.3223 32.3223C37.0107 27.6339 43.3696 25 50 25ZM50 33.3333C45.5797 33.3333 41.3405 35.0893 38.2149 38.2149C35.0893 41.3405 33.3333 45.5797 33.3333 50C33.3333 54.4203 35.0893 58.6595 38.2149 61.7851C41.3405 64.9107 45.5797 66.6667 50 66.6667C54.4203 66.6667 58.6595 64.9107 61.7851 61.7851C64.9107 58.6595 66.6667 54.4203 66.6667 50C66.6667 45.5797 64.9107 41.3405 61.7851 38.2149C58.6595 35.0893 54.4203 33.3333 50 33.3333ZM16.6667 45.8333C17.7287 45.8345 18.7501 46.2412 19.5224 46.9702C20.2946 47.6992 20.7593 48.6956 20.8216 49.7558C20.8838 50.816 20.5389 51.8599 19.8572 52.6743C19.1756 53.4887 18.2087 54.0121 17.1542 54.1375L16.6667 54.1667H12.5C11.438 54.1655 10.4165 53.7588 9.6443 53.0298C8.87207 52.3008 8.40736 51.3044 8.34512 50.2442C8.28288 49.184 8.62781 48.1401 9.30944 47.3257C9.99107 46.5113 10.9579 45.9879 12.0125 45.8625L12.5 45.8333H16.6667ZM87.5 45.8333C88.6051 45.8333 89.6649 46.2723 90.4463 47.0537C91.2277 47.8351 91.6667 48.8949 91.6667 50C91.6667 51.1051 91.2277 52.1649 90.4463 52.9463C89.6649 53.7277 88.6051 54.1667 87.5 54.1667H83.3333C82.2283 54.1667 81.1684 53.7277 80.387 52.9463C79.6057 52.1649 79.1667 51.1051 79.1667 50C79.1667 48.8949 79.6057 47.8351 80.387 47.0537C81.1684 46.2723 82.2283 45.8333 83.3333 45.8333H87.5ZM20.5375 20.5375C21.255 19.8201 22.2096 19.3891 23.2222 19.3255C24.2348 19.2618 25.2358 19.5698 26.0375 20.1917L26.4292 20.5375L29.375 23.4833C30.1223 24.2332 30.5561 25.2393 30.5885 26.2974C30.6208 27.3556 30.2491 28.3863 29.549 29.1803C28.8488 29.9743 27.8727 30.4721 26.8189 30.5725C25.765 30.6729 24.7125 30.3684 23.875 29.7208L23.4833 29.375L20.5375 26.4292C19.7564 25.6478 19.3176 24.5882 19.3176 23.4833C19.3176 22.3785 19.7564 21.3189 20.5375 20.5375ZM79.4625 20.5375C80.2436 21.3189 80.6824 22.3785 80.6824 23.4833C80.6824 24.5882 80.2436 25.6478 79.4625 26.4292L76.5167 29.375C76.1323 29.773 75.6725 30.0904 75.1642 30.3088C74.6558 30.5271 74.1091 30.6421 73.5558 30.6469C73.0026 30.6517 72.4539 30.5463 71.9419 30.3368C71.4298 30.1273 70.9646 29.8179 70.5734 29.4266C70.1821 29.0354 69.8727 28.5702 69.6632 28.0581C69.4537 27.5461 69.3483 26.9974 69.3531 26.4442C69.3579 25.8909 69.4729 25.3442 69.6912 24.8358C69.9096 24.3275 70.227 23.8677 70.625 23.4833L73.5708 20.5375C74.3522 19.7564 75.4118 19.3176 76.5167 19.3176C77.6215 19.3176 78.6811 19.7564 79.4625 20.5375ZM50 8.33333C51.1051 8.33333 52.1649 8.77231 52.9463 9.55372C53.7277 10.3351 54.1667 11.3949 54.1667 12.5V16.6667C54.1667 17.7717 53.7277 18.8315 52.9463 19.6129C52.1649 20.3943 51.1051 20.8333 50 20.8333C48.8949 20.8333 47.8351 20.3943 47.0537 19.6129C46.2723 18.8315 45.8333 17.7717 45.8333 16.6667V12.5C45.8333 11.3949 46.2723 10.3351 47.0537 9.55372C47.8351 8.77231 48.8949 8.33333 50 8.33333Z" fill="white"/>
</svg>
