<svg width="48" height="48" viewBox="0 0 48 48" fill="none" xmlns="http://www.w3.org/2000/svg">
<path d="M6 16H19C19.9889 16 20.9556 15.7068 21.7779 15.1573C22.6001 14.6079 23.241 13.827 23.6194 12.9134C23.9978 11.9998 24.0969 10.9945 23.9039 10.0246C23.711 9.05465 23.2348 8.16373 22.5355 7.46447C21.8363 6.76521 20.9454 6.289 19.9755 6.09608C19.0055 5.90315 18.0002 6.00217 17.0866 6.3806C16.173 6.75904 15.3921 7.39991 14.8427 8.22215C14.2932 9.0444 14 10.0111 14 11V11.714M8 28H37C38.3845 28 39.7378 28.4105 40.889 29.1797C42.0401 29.9489 42.9373 31.0421 43.4672 32.3212C43.997 33.6003 44.1356 35.0078 43.8655 36.3656C43.5954 37.7235 42.9287 38.9708 41.9497 39.9498C40.9708 40.9287 39.7235 41.5954 38.3656 41.8655C37.0078 42.1356 35.6003 41.997 34.3212 41.4672C33.0421 40.9373 31.9489 40.0401 31.1797 38.889C30.4105 37.7379 30 36.3845 30 35V34" stroke="white" stroke-width="3" stroke-linecap="round"/>
<path d="M4 22H37C38.3845 22 39.7378 21.5895 40.889 20.8203C42.0401 20.0511 42.9373 18.9579 43.4672 17.6788C43.997 16.3997 44.1356 14.9922 43.8655 13.6344C43.5954 12.2765 42.9287 11.0292 41.9497 10.0503C40.9708 9.07129 39.7235 8.4046 38.3656 8.13451C37.0078 7.86441 35.6003 8.00303 34.3212 8.53285C33.0421 9.06266 31.9489 9.95987 31.1797 11.111C30.4105 12.2622 30 13.6155 30 15V16" stroke="white" stroke-width="3" stroke-linecap="round"/>
</svg>
