<svg width="48" height="48" viewBox="0 0 48 48" fill="none" xmlns="http://www.w3.org/2000/svg">
<path d="M24 4V36M24 36V44M24 36L30 42M24 36L18 42M30 6L24 12L18 6M6.67999 14L13.608 18M13.608 18L34.392 30M13.608 18L11.412 9.804M13.608 18L5.41199 20.196M34.392 30L41.32 34M34.392 30L42.588 27.804M34.392 30L36.588 38.198M41.32 14L34.392 18M34.392 18L13.608 30M34.392 18L36.588 9.804M34.392 18L42.588 20.196M13.608 30L6.67999 34M13.608 30L5.41199 27.804M13.608 30L11.412 38.2" stroke="white" stroke-width="3" stroke-linecap="round"/>
</svg>
