<svg width="100" height="100" viewBox="0 0 100 100" fill="none" xmlns="http://www.w3.org/2000/svg">
<path d="M88.5417 50C88.5417 60.2219 84.481 70.0251 77.2531 77.2531C70.0251 84.481 60.2219 88.5417 50 88.5417V94.7917C74.7375 94.7917 94.7917 74.7375 94.7917 50H88.5417ZM50 88.5417C39.7781 88.5417 29.9749 84.481 22.7469 77.2531C15.519 70.0251 11.4583 60.2219 11.4583 50H5.20833C5.20833 74.7375 25.2625 94.7917 50 94.7917V88.5417ZM11.4583 50C11.4583 39.7781 15.519 29.9749 22.7469 22.7469C29.9749 15.5189 39.7781 11.4583 50 11.4583V5.20831C25.2625 5.20831 5.20833 25.2625 5.20833 50H11.4583ZM64.5833 59.375C58.2292 59.375 52.1353 56.8508 47.6422 52.3577C43.1492 47.8647 40.625 41.7708 40.625 35.4166H34.375C34.375 43.4284 37.5577 51.112 43.2228 56.7772C48.888 62.4423 56.5716 65.625 64.5833 65.625V59.375ZM85.1042 47.7875C82.9721 51.3235 79.9624 54.2485 76.367 56.2788C72.7715 58.309 68.7124 59.3756 64.5833 59.375V65.625C69.7891 65.6265 74.9069 64.2827 79.4404 61.724C83.974 59.1652 87.7693 55.4783 90.4583 51.0208L85.1042 47.7875ZM40.625 35.4166C40.6244 31.2876 41.691 27.2285 43.7212 23.633C45.7514 20.0376 48.6765 17.0278 52.2125 14.8958L48.9792 9.54581C44.5223 12.2345 40.8358 16.0292 38.277 20.5619C35.7183 25.0946 34.3742 30.2116 34.375 35.4166H40.625ZM50 11.4583C49.7906 11.4543 49.5841 11.4088 49.3924 11.3244C49.2007 11.24 49.0277 11.1184 48.8833 10.9666C48.7077 10.7902 48.5887 10.5653 48.5417 10.3208C48.525 10.1916 48.5333 9.81665 48.9792 9.54581L52.2125 14.8958C54.3083 13.6291 54.9833 11.3083 54.7375 9.48331C54.4792 7.58748 52.9875 5.20831 50 5.20831V11.4583ZM90.4583 51.0208C90.1833 51.4666 89.8083 51.475 89.6792 51.4583C89.4347 51.4113 89.2098 51.2923 89.0333 51.1166C88.8816 50.9723 88.76 50.7993 88.6756 50.6076C88.5912 50.4159 88.5457 50.2094 88.5417 50H94.7917C94.7917 47.0125 92.4125 45.5208 90.5167 45.2625C88.6917 45.0166 86.3708 45.6916 85.1042 47.7875L90.4583 51.0208Z" fill="white"/>
</svg>
