<svg width="100" height="100" viewBox="0 0 100 100" fill="none" xmlns="http://www.w3.org/2000/svg">
<path d="M5 56.3C5 60.7333 6.53333 64.5667 9.63333 67.7667C12.7333 70.9667 16.5 72.6667 21 72.8667C21.3667 72.8667 21.5667 72.6667 21.5667 72.3V67.8333C21.5667 67.4667 21.3667 67.2667 21 67.2667C18.1333 67.1333 15.7 65.9667 13.7 63.8333C11.7 61.7 10.7 59.1667 10.7 56.3C10.7 53.5667 11.6333 51.1667 13.5333 49.1C15.4333 47.0333 17.7667 45.8667 20.5333 45.5333L22.3 45.3667C22.7333 45.3667 22.9667 45.1667 22.9667 44.8L23.2 43C23.5667 39.4 25.0667 36.3667 27.7667 33.9333C30.4667 31.5 33.6333 30.2667 37.2667 30.2667C40.9 30.2667 44.0667 31.5 46.8 33.9333C49.5333 36.3667 51.0667 39.4 51.4667 43L51.7 44.9C51.7 45.3 51.9 45.5333 52.2667 45.5333H57.6667C60.6333 45.5333 63.1667 46.6 65.3333 48.7333C67.5 50.8667 68.5667 53.3667 68.5667 56.3C68.5667 59.2 67.5667 61.7 65.5667 63.8333C63.5667 65.9667 61.1333 67.1 58.3 67.2667C57.9 67.2667 57.6667 67.4667 57.6667 67.8333V72.3C57.6667 72.6667 57.8667 72.8667 58.3 72.8667C62.7333 72.7333 66.5 71.0333 69.6 67.8333C72.7 64.6 74.2333 60.7667 74.2333 56.3333C74.2333 53.9333 73.7667 51.7 72.8333 49.6333C75.4333 46.4 76.7333 42.7333 76.7333 38.6C76.7333 35.4333 75.9333 32.5 74.3667 29.8C72.8 27.1 70.6667 24.9667 67.9667 23.4C63.9167 21.05 62.3667 21.0667 59.2333 21.0667C54.0333 21.0667 49.7333 23 46.3 26.8667C43.5667 25.4 40.5667 24.6667 37.2667 24.6667C32.5667 24.6667 28.3667 26.1333 24.7333 29.0667C21.1 32 18.7667 35.7333 17.7333 40.2667C14.0333 41.1333 11 43.0667 8.6 46.0667C6.2 49.0667 5 52.4667 5 56.3ZM23 79.1667C23 79.7333 23.1667 80.2667 23.5333 80.8C23.9 81.3333 24.4333 81.7 25.1667 81.9C25.5333 81.9667 25.8333 82.0333 26.0667 82.0333C27.3667 82.0333 28.2333 81.3333 28.6333 79.9L33.9 60.3C34.1333 59.5 34.0333 58.7667 33.6333 58.0667C33.4495 57.7391 33.196 57.4559 32.8907 57.2371C32.5855 57.0182 32.2359 56.869 31.8667 56.8C31.5212 56.6809 31.1536 56.6401 30.7904 56.6804C30.4272 56.7208 30.0776 56.8413 29.7667 57.0333C29.1 57.4 28.6333 57.9667 28.4 58.7333L23.1333 78.4333C23.0667 78.8667 23 79.1 23 79.1667ZM31.7 89.4333C31.7 90.0667 31.8667 90.6333 32.2 91.1667C32.5333 91.7 33.1 92.0333 33.9333 92.1667C34.3 92.2333 34.6 92.3 34.8 92.3C35.3333 92.3 35.8333 92.1 36.3 91.7333C36.7667 91.3333 37.0667 90.8 37.2 90.1333L45.2 60.3667C45.4 59.6 45.3333 58.8667 44.9667 58.2333C44.6 57.6 44.0333 57.1333 43.3 56.9C42.9435 56.7798 42.5651 56.7384 42.191 56.7787C41.817 56.819 41.4561 56.94 41.1333 57.1333C40.4667 57.5 40 58.0667 39.8 58.8333L31.8 88.6C31.7333 89.1 31.7 89.4 31.7 89.4333ZM33.1 15.3333C33.1 16.1333 33.3667 16.8 33.9333 17.3667L36.1 19.5667C36.7333 20.0667 37.4333 20.3 38.1667 20.3C38.8667 20.3 39.5333 20.0333 40.1 19.5333C40.6667 19 40.9667 18.3667 40.9667 17.5667C40.9667 16.7667 40.7 16.0333 40.1667 15.4333L38.0333 13.2667C37.7661 12.9983 37.448 12.786 37.0976 12.6421C36.7473 12.4983 36.3717 12.4258 35.993 12.4289C35.6143 12.432 35.24 12.5106 34.892 12.6602C34.5441 12.8098 34.2295 13.0273 33.9667 13.3C33.4 13.8667 33.1 14.5667 33.1 15.3333ZM45.5333 79.2333C45.5353 79.8348 45.7356 80.4189 46.1032 80.895C46.4708 81.3711 46.9852 81.7126 47.5667 81.8667C47.9333 81.9333 48.2333 82 48.4 82C48.9667 82 49.5333 81.8333 50.0333 81.5C50.5333 81.1667 50.8667 80.6333 51.0333 79.8667L56.3 60.2667C56.4045 59.9143 56.4382 59.5447 56.3991 59.1793C56.3601 58.8138 56.249 58.4597 56.0724 58.1374C55.8957 57.8151 55.657 57.531 55.3699 57.3015C55.0829 57.0719 54.7533 56.9015 54.4 56.8C54.0439 56.6776 53.6651 56.635 53.2907 56.6753C52.9162 56.7156 52.5552 56.8379 52.2333 57.0333C51.9084 57.2082 51.6245 57.4503 51.4003 57.7434C51.1762 58.0365 51.017 58.374 50.9333 58.7333L45.6667 78.4333C45.6 78.9333 45.5333 79.2 45.5333 79.2333ZM50.9667 30.1C53.3333 27.8667 56.0667 26.7667 59.2333 26.7667C62.5 26.7667 65.3 27.9333 67.5667 30.2333C69.8667 32.5333 71 35.3333 71 38.6333C71 40.7 70.4333 42.7667 69.2667 44.8C66.0333 41.5667 62.1667 39.9667 57.6333 39.9667H56.5333C55.7124 36.1928 53.7724 32.7542 50.9667 30.1ZM56.3667 12.6C56.3667 13.3667 56.6333 14.0333 57.2 14.5667C57.7667 15.1 58.4333 15.3667 59.2333 15.3667C60 15.3667 60.6667 15.1 61.2 14.6C61.7333 14.0667 62 13.4333 62 12.6333V5.76668C62 4.90001 61.7333 4.20001 61.2333 3.66668C60.9778 3.40576 60.6714 3.20013 60.3331 3.06251C59.9948 2.9249 59.6318 2.85824 59.2667 2.86668C58.4333 2.86668 57.7333 3.13334 57.2 3.70001C56.6667 4.26668 56.4 4.93334 56.4 5.76668V12.6H56.3667ZM74.8 20.2C74.8 21 75.1 21.6667 75.7 22.1667C76.1667 22.7 76.7667 22.9667 77.5333 23.0333C78.3 23.1 79 22.8 79.6 22.1667L84.4 17.4C85 16.8333 85.2667 16.1333 85.2667 15.3C85.2667 14.5 85 13.8 84.4333 13.2667C84.1642 13.0054 83.8459 12.8001 83.4969 12.6628C83.1478 12.5255 82.775 12.4588 82.4 12.4667C81.7 12.4667 81.0667 12.7333 80.4667 13.3L75.7 18.1C75.1 18.6667 74.8 19.3667 74.8 20.2ZM77.5 59.7C77.5 60.5 77.7667 61.2 78.3 61.8L80.4667 63.9C81.0667 64.3667 81.7333 64.6 82.4667 64.6L82.5333 64.6667C83.3 64.6667 83.9333 64.4 84.4667 63.8667C85 63.3333 85.2667 62.6333 85.2667 61.8333C85.2667 61.0333 84.9667 60.4 84.4 59.9L82.3333 57.7C81.7333 57.1667 81.0333 56.9 80.2667 56.9C79.5 56.9 78.8333 57.1667 78.3 57.7333C77.7667 58.3 77.5 58.9 77.5 59.7ZM82.3667 38.6C82.3667 39.4 82.6667 40.0333 83.2333 40.5667C83.8333 41.1667 84.5 41.4333 85.3 41.4333H92.0667C92.8667 41.4333 93.5333 41.1667 94.1 40.6C94.6667 40.0333 94.9333 39.3667 94.9333 38.6C94.9333 37.8 94.6667 37.1333 94.1 36.5667C93.5333 36 92.8667 35.7 92.0667 35.7H85.3C84.9153 35.7002 84.5344 35.7769 84.1796 35.9256C83.8248 36.0744 83.5031 36.2923 83.2333 36.5667C82.6333 37.1333 82.3667 37.8 82.3667 38.6Z" fill="white"/>
</svg>
