<svg width="48" height="48" viewBox="0 0 48 48" fill="none" xmlns="http://www.w3.org/2000/svg">
<path d="M6.76801 27.008C6.76801 28.8 7.29601 30.4 8.36801 31.808C9.44001 33.216 10.816 34.16 12.496 34.624L11.44 37.344C11.36 37.568 11.44 37.696 11.664 37.696H15.072L12.8 44.432H13.264L20.24 35.376C20.304 35.312 20.304 35.232 20.272 35.152C20.24 35.072 20.16 35.04 20.048 35.04H16.544L20.528 27.6C20.64 27.376 20.576 27.248 20.304 27.248H15.552C15.408 27.248 15.28 27.328 15.184 27.488L13.472 32.096C12.32 31.808 11.376 31.2 10.624 30.24C9.87201 29.296 9.50401 28.224 9.50401 27.008C9.50401 25.664 9.95201 24.496 10.848 23.52C11.744 22.544 12.88 21.968 14.224 21.808L15.04 21.76C15.232 21.76 15.344 21.68 15.392 21.536L15.52 20.592C15.696 18.864 16.416 17.408 17.712 16.24C19.008 15.072 20.528 14.48 22.288 14.48C24.032 14.48 25.552 15.072 26.864 16.24C28.176 17.408 28.928 18.864 29.104 20.592L29.232 21.536C29.232 21.712 29.328 21.808 29.52 21.808H32.096C33.52 21.808 34.752 22.32 35.792 23.344C37.352 24.88 37.344 25.584 37.344 27.008C37.344 28.4 36.864 29.6 35.904 30.624C34.944 31.648 33.792 32.192 32.416 32.272C32.208 32.272 32.096 32.368 32.096 32.56V34.704C32.096 34.88 32.208 34.976 32.416 34.976C33.824 34.944 35.12 34.56 36.288 33.824C37.456 33.104 38.384 32.128 39.072 30.928C39.76 29.728 40.096 28.416 40.096 27.008C40.096 25.84 39.872 24.768 39.408 23.776C40.624 22.24 41.232 20.48 41.232 18.512C41.232 16.992 40.848 15.584 40.096 14.288C39.3621 13.01 38.302 11.9499 37.024 11.216C35.728 10.464 34.32 10.08 32.8 10.08C31.648 10.08 30.528 10.32 29.44 10.8C28.352 11.28 27.424 11.952 26.624 12.8C25.328 12.112 23.888 11.76 22.272 11.76C20 11.76 17.984 12.464 16.24 13.872C14.496 15.28 13.36 17.072 12.88 19.264C11.104 19.68 9.64801 20.608 8.49601 22.048C7.34401 23.52 6.76801 25.168 6.76801 27.008ZM22.112 36.736C22.112 37.12 22.24 37.44 22.496 37.68C22.752 37.936 23.072 38.064 23.424 38.064C23.808 38.064 24.128 37.936 24.4 37.68C24.672 37.424 24.8 37.104 24.8 36.736C24.8 36.352 24.672 36.032 24.4 35.76C24.128 35.488 23.808 35.344 23.424 35.344C23.072 35.344 22.768 35.488 22.496 35.76C22.224 36.032 22.112 36.352 22.112 36.736ZM22.112 30.912C22.112 31.296 22.24 31.6 22.496 31.84C22.752 32.096 23.072 32.224 23.424 32.224C23.808 32.224 24.144 32.096 24.4 31.856C24.656 31.616 24.8 31.296 24.8 30.912C24.8 30.544 24.672 30.224 24.4 29.952C24.128 29.68 23.808 29.552 23.424 29.552C23.056 29.552 22.752 29.68 22.496 29.952C22.24 30.224 22.112 30.544 22.112 30.912ZM22.112 42.608C22.112 42.96 22.24 43.264 22.496 43.52C22.768 43.792 23.072 43.92 23.424 43.92C23.808 43.92 24.128 43.792 24.4 43.536C24.672 43.28 24.8 42.976 24.8 42.592C24.8 42.208 24.672 41.888 24.4 41.616C24.2746 41.4833 24.1233 41.3779 23.9554 41.3063C23.7874 41.2347 23.6065 41.1986 23.424 41.2C23.072 41.2 22.768 41.344 22.496 41.616C22.24 41.904 22.112 42.24 22.112 42.608ZM27.28 33.632C27.28 34.016 27.408 34.336 27.68 34.592C27.952 34.848 28.256 34.992 28.64 34.992C29.008 34.992 29.328 34.864 29.584 34.592C29.84 34.32 29.968 34 29.968 33.632C29.968 33.28 29.84 32.96 29.584 32.704C29.4613 32.5788 29.3143 32.4801 29.1519 32.414C28.9895 32.348 28.8153 32.316 28.64 32.32C28.272 32.32 27.952 32.448 27.68 32.704C27.272 33.088 27.28 33.264 27.28 33.632ZM27.28 39.456C27.28 39.824 27.408 40.128 27.664 40.384C27.92 40.64 28.24 40.768 28.624 40.768C29.008 40.768 29.312 40.64 29.568 40.384C29.824 40.128 29.936 39.824 29.936 39.44C29.936 39.056 29.808 38.752 29.568 38.496C29.4451 38.3721 29.2976 38.2753 29.135 38.2119C28.9724 38.1485 28.7983 38.1199 28.624 38.128C28.24 38.128 27.92 38.256 27.664 38.496C27.408 38.752 27.28 39.072 27.28 39.456ZM28.896 14.432C29.968 13.408 31.264 12.88 32.816 12.88C34.384 12.88 35.728 13.424 36.832 14.528C37.936 15.616 38.496 16.96 38.496 18.528C38.496 19.584 38.24 20.544 37.744 21.424C36.208 19.888 34.336 19.12 32.112 19.12H31.616C31.136 17.216 30.224 15.648 28.896 14.432Z" fill="white"/>
</svg>
